<?xml version="1.0" encoding="UTF-8"?><svg xmlns="http://www.w3.org/2000/svg" xmlns:xlink="http://www.w3.org/1999/xlink" fill-opacity="1" color-rendering="auto" color-interpolation="auto" text-rendering="auto" stroke="black" stroke-linecap="square" width="1188" stroke-miterlimit="10" shape-rendering="auto" stroke-opacity="1" fill="black" stroke-dasharray="none" font-weight="normal" stroke-width="1" height="353" font-family="'Dialog'" font-style="normal" stroke-linejoin="miter" font-size="12px" stroke-dashoffset="0" image-rendering="auto">
  <!--Generated by ySVG 2.5-->
  <defs id="genericDefs"/>
  <g>
    <defs id="defs1">
      <clipPath clipPathUnits="userSpaceOnUse" id="clipPath1">
        <path d="M0 0 L1188 0 L1188 353 L0 353 L0 0 Z"/>
      </clipPath>
      <clipPath clipPathUnits="userSpaceOnUse" id="clipPath2">
        <path d="M-11 259 L1177 259 L1177 612 L-11 612 L-11 259 Z"/>
      </clipPath>
    </defs>
    <g fill="white" text-rendering="geometricPrecision" shape-rendering="geometricPrecision" transform="translate(11,-259)" stroke="white">
      <rect x="-11" width="1188" height="353" y="259" clip-path="url(#clipPath2)" stroke="none"/>
    </g>
    <g fill="rgb(245,245,245)" text-rendering="geometricPrecision" shape-rendering="geometricPrecision" transform="matrix(1,0,0,1,11,-259)" stroke="rgb(245,245,245)">
      <rect x="4" y="334.8086" clip-path="url(#clipPath2)" width="328" rx="4" ry="4" height="179.4609" stroke="none"/>
      <rect x="4" y="334.8086" clip-path="url(#clipPath2)" fill="rgb(235,235,235)" width="328" height="21.4609" stroke="none"/>
    </g>
    <g font-size="15px" stroke-linecap="butt" transform="matrix(1,0,0,1,11,-259)" text-rendering="geometricPrecision" font-family="sans-serif" shape-rendering="geometricPrecision" font-weight="bold" stroke-miterlimit="1.45">
      <text x="138.8789" xml:space="preserve" y="350.7319" clip-path="url(#clipPath2)" stroke="none">Clients</text>
    </g>
    <g text-rendering="geometricPrecision" stroke-miterlimit="1.45" stroke-dasharray="6,2" shape-rendering="geometricPrecision" transform="matrix(1,0,0,1,11,-259)" stroke-linecap="butt">
      <rect x="4" y="334.8086" clip-path="url(#clipPath2)" fill="none" width="328" rx="4" ry="4" height="179.4609"/>
    </g>
    <g fill="rgb(255,204,0)" text-rendering="geometricPrecision" shape-rendering="geometricPrecision" transform="matrix(1,0,0,1,11,-259)" stroke="rgb(255,204,0)">
      <rect x="207" width="110" height="30" y="371.2695" clip-path="url(#clipPath2)" stroke="none"/>
    </g>
    <g text-rendering="geometricPrecision" stroke-miterlimit="1.45" shape-rendering="geometricPrecision" transform="matrix(1,0,0,1,11,-259)" stroke-linecap="butt">
      <rect fill="none" x="207" width="110" height="30" y="371.2695" clip-path="url(#clipPath2)"/>
      <text x="235.293" xml:space="preserve" y="390.4238" clip-path="url(#clipPath2)" font-family="sans-serif" stroke="none">Go client</text>
    </g>
    <g fill="rgb(255,204,0)" text-rendering="geometricPrecision" shape-rendering="geometricPrecision" transform="matrix(1,0,0,1,11,-259)" stroke="rgb(255,204,0)">
      <rect x="207" width="110" height="30" y="420.2695" clip-path="url(#clipPath2)" stroke="none"/>
    </g>
    <g text-rendering="geometricPrecision" stroke-miterlimit="1.45" shape-rendering="geometricPrecision" transform="matrix(1,0,0,1,11,-259)" stroke-linecap="butt">
      <rect fill="none" x="207" width="110" height="30" y="420.2695" clip-path="url(#clipPath2)"/>
      <text x="222.8154" xml:space="preserve" y="439.4238" clip-path="url(#clipPath2)" font-family="sans-serif" stroke="none">Python client</text>
    </g>
    <g fill="rgb(255,204,0)" text-rendering="geometricPrecision" shape-rendering="geometricPrecision" transform="matrix(1,0,0,1,11,-259)" stroke="rgb(255,204,0)">
      <rect x="207" width="110" height="30" y="469.2695" clip-path="url(#clipPath2)" stroke="none"/>
    </g>
    <g text-rendering="geometricPrecision" stroke-miterlimit="1.45" shape-rendering="geometricPrecision" transform="matrix(1,0,0,1,11,-259)" stroke-linecap="butt">
      <rect fill="none" x="207" width="110" height="30" y="469.2695" clip-path="url(#clipPath2)"/>
      <text x="227.4854" xml:space="preserve" y="488.4238" clip-path="url(#clipPath2)" font-family="sans-serif" stroke="none">Scala client</text>
    </g>
    <g fill="rgb(255,204,0)" text-rendering="geometricPrecision" shape-rendering="geometricPrecision" transform="matrix(1,0,0,1,11,-259)" stroke="rgb(255,204,0)">
      <rect x="112" width="55" height="30" y="444.7695" clip-path="url(#clipPath2)" stroke="none"/>
    </g>
    <g text-rendering="geometricPrecision" stroke-miterlimit="1.45" shape-rendering="geometricPrecision" transform="matrix(1,0,0,1,11,-259)" stroke-linecap="butt">
      <rect fill="none" x="112" width="55" height="30" y="444.7695" clip-path="url(#clipPath2)"/>
      <text x="116.332" y="463.9238" clip-path="url(#clipPath2)" font-family="sans-serif" stroke="none" font-weight="bold" xml:space="preserve">libuast</text>
    </g>
    <g fill="rgb(255,204,0)" text-rendering="geometricPrecision" shape-rendering="geometricPrecision" transform="matrix(1,0,0,1,11,-259)" stroke="rgb(255,204,0)">
      <rect x="19" width="55" height="30" y="414.7695" clip-path="url(#clipPath2)" stroke="none"/>
    </g>
    <g text-rendering="geometricPrecision" stroke-miterlimit="1.45" shape-rendering="geometricPrecision" transform="matrix(1,0,0,1,11,-259)" stroke-linecap="butt">
      <rect fill="none" x="19" width="55" height="30" y="414.7695" clip-path="url(#clipPath2)"/>
      <text x="32.5488" y="433.9238" clip-path="url(#clipPath2)" font-family="sans-serif" stroke="none" font-weight="bold" xml:space="preserve">SDK</text>
      <path fill="none" d="M207 446.2695 L167 454.2695" clip-path="url(#clipPath2)"/>
      <path fill="none" d="M207 473.2695 L167 465.2695" clip-path="url(#clipPath2)"/>
      <path fill="none" d="M207 397.3716 L74 424.2185" clip-path="url(#clipPath2)"/>
      <path fill="none" d="M112 450.8986 L74 438.6405" clip-path="url(#clipPath2)"/>
    </g>
    <g fill="rgb(245,245,245)" text-rendering="geometricPrecision" shape-rendering="geometricPrecision" transform="matrix(1,0,0,1,11,-259)" stroke="rgb(245,245,245)">
      <rect x="467" y="362.8086" clip-path="url(#clipPath2)" width="180" rx="4" ry="4" height="166.4609" stroke="none"/>
      <rect x="467" y="362.8086" clip-path="url(#clipPath2)" fill="rgb(235,235,235)" width="180" height="21.4609" stroke="none"/>
    </g>
    <g font-size="15px" stroke-linecap="butt" transform="matrix(1,0,0,1,11,-259)" text-rendering="geometricPrecision" font-family="sans-serif" shape-rendering="geometricPrecision" font-weight="bold" stroke-miterlimit="1.45">
      <text x="529.1387" xml:space="preserve" y="378.7319" clip-path="url(#clipPath2)" stroke="none">Server</text>
    </g>
    <g text-rendering="geometricPrecision" stroke-miterlimit="1.45" stroke-dasharray="6,2" shape-rendering="geometricPrecision" transform="matrix(1,0,0,1,11,-259)" stroke-linecap="butt">
      <rect x="467" y="362.8086" clip-path="url(#clipPath2)" fill="none" width="180" rx="4" ry="4" height="166.4609"/>
    </g>
    <g fill="rgb(255,204,0)" text-rendering="geometricPrecision" shape-rendering="geometricPrecision" transform="matrix(1,0,0,1,11,-259)" stroke="rgb(255,204,0)">
      <rect x="496" width="118" height="42" y="399.2695" clip-path="url(#clipPath2)" stroke="none"/>
    </g>
    <g text-rendering="geometricPrecision" stroke-miterlimit="1.45" shape-rendering="geometricPrecision" transform="matrix(1,0,0,1,11,-259)" stroke-linecap="butt">
      <rect fill="none" x="496" width="118" height="42" y="399.2695" clip-path="url(#clipPath2)"/>
      <text x="529.6055" y="424.4238" clip-path="url(#clipPath2)" font-family="sans-serif" stroke="none" font-weight="bold" xml:space="preserve">bblfshd</text>
    </g>
    <g fill="rgb(255,204,0)" text-rendering="geometricPrecision" shape-rendering="geometricPrecision" transform="matrix(1,0,0,1,11,-259)" stroke="rgb(255,204,0)">
      <rect x="482" width="55" height="30" y="484.2695" clip-path="url(#clipPath2)" stroke="none"/>
    </g>
    <g text-rendering="geometricPrecision" stroke-miterlimit="1.45" shape-rendering="geometricPrecision" transform="matrix(1,0,0,1,11,-259)" stroke-linecap="butt">
      <rect fill="none" x="482" width="55" height="30" y="484.2695" clip-path="url(#clipPath2)"/>
      <text x="495.5488" y="503.4238" clip-path="url(#clipPath2)" font-family="sans-serif" stroke="none" font-weight="bold" xml:space="preserve">SDK</text>
    </g>
    <g fill="rgb(255,204,0)" text-rendering="geometricPrecision" shape-rendering="geometricPrecision" transform="matrix(1,0,0,1,11,-259)" stroke="rgb(255,204,0)">
      <rect x="548" width="84" height="30" y="484.2695" clip-path="url(#clipPath2)" stroke="none"/>
    </g>
    <g text-rendering="geometricPrecision" stroke-miterlimit="1.45" shape-rendering="geometricPrecision" transform="matrix(1,0,0,1,11,-259)" stroke-linecap="butt">
      <rect fill="none" x="548" width="84" height="30" y="484.2695" clip-path="url(#clipPath2)"/>
      <text x="554.4277" xml:space="preserve" y="503.4238" clip-path="url(#clipPath2)" font-family="sans-serif" stroke="none">libcontainer</text>
      <path fill="none" d="M324.9467 393.5739 L488.0533 412.501" clip-path="url(#clipPath2)"/>
      <path d="M317 392.6518 L328.3437 399.0016 L325.94 393.6892 L329.4963 389.0683 Z" clip-path="url(#clipPath2)" stroke="none"/>
      <path d="M496 413.4231 L484.6563 407.0732 L487.06 412.3857 L483.5036 417.0066 Z" clip-path="url(#clipPath2)" stroke="none"/>
      <path fill="none" d="M324.9895 432.0448 L488.0105 423.699" clip-path="url(#clipPath2)"/>
      <path d="M317 432.4538 L329.24 436.8337 L325.9882 431.9937 L328.7287 426.8468 Z" clip-path="url(#clipPath2)" stroke="none"/>
      <path d="M496 423.29 L483.76 418.9101 L487.0118 423.7502 L484.2713 428.897 Z" clip-path="url(#clipPath2)" stroke="none"/>
      <path fill="none" d="M324.8157 470.5487 L488.1843 434.8641" clip-path="url(#clipPath2)"/>
      <path d="M317 472.2559 L329.7906 474.58 L325.7927 470.3353 L327.6566 464.8103 Z" clip-path="url(#clipPath2)" stroke="none"/>
      <path d="M496 433.1569 L483.2094 430.8329 L487.2073 435.0775 L485.3434 440.6025 Z" clip-path="url(#clipPath2)" stroke="none"/>
      <text x="386.9543" y="487.9677" clip-path="url(#clipPath2)" font-family="sans-serif" stroke="none" font-weight="bold" xml:space="preserve">gRPC</text>
      <path fill="none" d="M542.9051 441.2695 L522.132 477.3371" clip-path="url(#clipPath2)"/>
      <path d="M518.1392 484.2695 L528.4611 476.3664 L522.631 476.4706 L519.7956 471.3755 Z" clip-path="url(#clipPath2)" stroke="none"/>
      <path fill="none" d="M564.3038 441.2695 L580.1139 476.9552" clip-path="url(#clipPath2)"/>
      <path d="M583.3544 484.2695 L583.0651 471.2728 L579.7088 476.041 L573.9222 475.3234 Z" clip-path="url(#clipPath2)" stroke="none"/>
    </g>
    <g fill="rgb(245,245,245)" text-rendering="geometricPrecision" shape-rendering="geometricPrecision" transform="matrix(1,0,0,1,11,-259)" stroke="rgb(245,245,245)">
      <rect x="743.6367" y="274.0781" clip-path="url(#clipPath2)" width="418" rx="4" ry="4" height="322.3828" stroke="none"/>
      <rect x="743.6367" y="274.0781" clip-path="url(#clipPath2)" fill="rgb(235,235,235)" width="418" height="21.4609" stroke="none"/>
    </g>
    <g font-size="15px" stroke-linecap="butt" transform="matrix(1,0,0,1,11,-259)" text-rendering="geometricPrecision" font-family="sans-serif" shape-rendering="geometricPrecision" font-weight="bold" stroke-miterlimit="1.45">
      <text x="905.6116" xml:space="preserve" y="290.0015" clip-path="url(#clipPath2)" stroke="none">Driver pool</text>
    </g>
    <g text-rendering="geometricPrecision" stroke-miterlimit="1.45" stroke-dasharray="6,2" shape-rendering="geometricPrecision" transform="matrix(1,0,0,1,11,-259)" stroke-linecap="butt">
      <rect x="743.6367" y="274.0781" clip-path="url(#clipPath2)" fill="none" width="418" rx="4" ry="4" height="322.3828"/>
    </g>
    <g fill="rgb(225,225,225)" text-rendering="geometricPrecision" shape-rendering="geometricPrecision" transform="matrix(1,0,0,1,11,-259)" stroke="rgb(225,225,225)">
      <rect x="776.6367" y="324.8086" clip-path="url(#clipPath2)" width="370" rx="4" ry="4" height="116.4609" stroke="none"/>
      <rect x="776.6367" y="324.8086" clip-path="url(#clipPath2)" fill="rgb(235,235,235)" width="370" height="4" stroke="none"/>
    </g>
    <g text-rendering="geometricPrecision" stroke-miterlimit="1.45" stroke-dasharray="6,2" shape-rendering="geometricPrecision" transform="matrix(1,0,0,1,11,-259)" stroke-linecap="butt">
      <rect x="776.6367" y="324.8086" clip-path="url(#clipPath2)" fill="none" width="370" rx="4" ry="4" height="116.4609"/>
    </g>
    <g fill="rgb(225,225,225)" text-rendering="geometricPrecision" shape-rendering="geometricPrecision" transform="matrix(1,0,0,1,11,-259)" stroke="rgb(225,225,225)">
      <rect x="776.6367" y="458" clip-path="url(#clipPath2)" width="370" rx="4" ry="4" height="116.4609" stroke="none"/>
      <rect x="776.6367" y="458" clip-path="url(#clipPath2)" fill="rgb(235,235,235)" width="370" height="4" stroke="none"/>
    </g>
    <g text-rendering="geometricPrecision" stroke-miterlimit="1.45" stroke-dasharray="6,2" shape-rendering="geometricPrecision" transform="matrix(1,0,0,1,11,-259)" stroke-linecap="butt">
      <rect x="776.6367" y="458" clip-path="url(#clipPath2)" fill="none" width="370" rx="4" ry="4" height="116.4609"/>
    </g>
    <g fill="rgb(225,225,225)" text-rendering="geometricPrecision" shape-rendering="geometricPrecision" transform="matrix(1,0,0,1,11,-259)" stroke="rgb(225,225,225)">
      <rect x="767" y="318.5391" clip-path="url(#clipPath2)" width="370" rx="4" ry="4" height="116.4609" stroke="none"/>
      <rect x="767" y="318.5391" clip-path="url(#clipPath2)" fill="rgb(235,235,235)" width="370" height="21.4609" stroke="none"/>
    </g>
    <g font-size="15px" stroke-linecap="butt" transform="matrix(1,0,0,1,11,-259)" text-rendering="geometricPrecision" font-family="sans-serif" shape-rendering="geometricPrecision" stroke-miterlimit="1.45">
      <text x="1072.1582" xml:space="preserve" y="334.4624" clip-path="url(#clipPath2)" stroke="none">JS driver</text>
      <rect x="767" y="318.5391" clip-path="url(#clipPath2)" fill="none" width="370" stroke-dasharray="6,2" rx="4" ry="4" height="116.4609"/>
    </g>
    <g fill="rgb(255,204,0)" text-rendering="geometricPrecision" shape-rendering="geometricPrecision" transform="matrix(1,0,0,1,11,-259)" stroke="rgb(255,204,0)">
      <rect x="782" width="99" height="42" y="355" clip-path="url(#clipPath2)" stroke="none"/>
    </g>
    <g text-rendering="geometricPrecision" stroke-miterlimit="1.45" shape-rendering="geometricPrecision" transform="matrix(1,0,0,1,11,-259)" stroke-linecap="butt">
      <rect fill="none" x="782" width="99" height="42" y="355" clip-path="url(#clipPath2)"/>
      <text x="792.1367" xml:space="preserve" y="373.1699" clip-path="url(#clipPath2)" font-family="sans-serif" stroke="none">Driver server</text>
      <text x="818.498" xml:space="preserve" y="387.1387" clip-path="url(#clipPath2)" font-family="sans-serif" stroke="none">(Go)</text>
    </g>
    <g fill="rgb(255,204,0)" text-rendering="geometricPrecision" shape-rendering="geometricPrecision" transform="matrix(1,0,0,1,11,-259)" stroke="rgb(255,204,0)">
      <rect x="1016" width="99" height="42" y="355" clip-path="url(#clipPath2)" stroke="none"/>
    </g>
    <g text-rendering="geometricPrecision" stroke-miterlimit="1.45" shape-rendering="geometricPrecision" transform="matrix(1,0,0,1,11,-259)" stroke-linecap="butt">
      <rect fill="none" x="1016" width="99" height="42" y="355" clip-path="url(#clipPath2)"/>
      <text x="1026.5146" xml:space="preserve" y="373.1699" clip-path="url(#clipPath2)" font-family="sans-serif" stroke="none">Native driver</text>
      <text x="1055.2402" xml:space="preserve" y="387.1387" clip-path="url(#clipPath2)" font-family="sans-serif" stroke="none">(JS)</text>
      <path fill="none" d="M621.8994 409.5585 L774.1006 385.19" clip-path="url(#clipPath2)"/>
      <path d="M614 410.8232 L626.6396 413.8632 L622.8868 409.4004 L625.0586 403.989 Z" clip-path="url(#clipPath2)" stroke="none"/>
      <path d="M782 383.9253 L769.3605 380.8853 L773.1132 385.3481 L770.9413 390.7595 Z" clip-path="url(#clipPath2)" stroke="none"/>
      <path fill="none" d="M889 376 L1008 376" clip-path="url(#clipPath2)"/>
      <path d="M881 376 L893 381 L890 376 L893 371 Z" clip-path="url(#clipPath2)" stroke="none"/>
      <path d="M1016 376 L1004 371 L1007 376 L1004 381 Z" clip-path="url(#clipPath2)" stroke="none"/>
      <text x="931.8242" y="403.1699" clip-path="url(#clipPath2)" font-family="sans-serif" stroke="none" font-weight="bold" xml:space="preserve">JSON</text>
      <text x="901.7656" y="417.1387" clip-path="url(#clipPath2)" font-family="sans-serif" stroke="none" font-weight="bold" xml:space="preserve">(stdin/stdout)</text>
    </g>
    <g fill="rgb(225,225,225)" text-rendering="geometricPrecision" shape-rendering="geometricPrecision" transform="matrix(1,0,0,1,11,-259)" stroke="rgb(225,225,225)">
      <rect x="767" y="450.8086" clip-path="url(#clipPath2)" width="370" rx="4" ry="4" height="116.4609" stroke="none"/>
      <rect x="767" y="450.8086" clip-path="url(#clipPath2)" fill="rgb(235,235,235)" width="370" height="21.4609" stroke="none"/>
    </g>
    <g font-size="15px" stroke-linecap="butt" transform="matrix(1,0,0,1,11,-259)" text-rendering="geometricPrecision" font-family="sans-serif" shape-rendering="geometricPrecision" stroke-miterlimit="1.45">
      <text x="1050.4932" xml:space="preserve" y="466.7319" clip-path="url(#clipPath2)" stroke="none">C++ driver</text>
      <rect x="767" y="450.8086" clip-path="url(#clipPath2)" fill="none" width="370" stroke-dasharray="6,2" rx="4" ry="4" height="116.4609"/>
    </g>
    <g fill="rgb(255,204,0)" text-rendering="geometricPrecision" shape-rendering="geometricPrecision" transform="matrix(1,0,0,1,11,-259)" stroke="rgb(255,204,0)">
      <rect x="782" width="99" height="42" y="487.2695" clip-path="url(#clipPath2)" stroke="none"/>
    </g>
    <g text-rendering="geometricPrecision" stroke-miterlimit="1.45" shape-rendering="geometricPrecision" transform="matrix(1,0,0,1,11,-259)" stroke-linecap="butt">
      <rect fill="none" x="782" width="99" height="42" y="487.2695" clip-path="url(#clipPath2)"/>
      <text x="792.1367" xml:space="preserve" y="505.4395" clip-path="url(#clipPath2)" font-family="sans-serif" stroke="none">Driver server</text>
      <text x="818.498" xml:space="preserve" y="519.4082" clip-path="url(#clipPath2)" font-family="sans-serif" stroke="none">(Go)</text>
    </g>
    <g fill="rgb(255,204,0)" text-rendering="geometricPrecision" shape-rendering="geometricPrecision" transform="matrix(1,0,0,1,11,-259)" stroke="rgb(255,204,0)">
      <rect x="1016" width="99" height="42" y="487.2695" clip-path="url(#clipPath2)" stroke="none"/>
    </g>
    <g text-rendering="geometricPrecision" stroke-miterlimit="1.45" shape-rendering="geometricPrecision" transform="matrix(1,0,0,1,11,-259)" stroke-linecap="butt">
      <rect fill="none" x="1016" width="99" height="42" y="487.2695" clip-path="url(#clipPath2)"/>
      <text x="1026.5146" xml:space="preserve" y="505.4395" clip-path="url(#clipPath2)" font-family="sans-serif" stroke="none">Native driver</text>
      <text x="1048.1445" xml:space="preserve" y="519.4082" clip-path="url(#clipPath2)" font-family="sans-serif" stroke="none">(Java)</text>
      <path fill="none" d="M621.6232 441.4733 L774.3768 490.0893" clip-path="url(#clipPath2)"/>
      <path d="M614 439.0471 L623.9185 447.4509 L622.5761 441.7766 L626.9512 437.9219 Z" clip-path="url(#clipPath2)" stroke="none"/>
      <path d="M782 492.5155 L772.0815 484.1117 L773.4239 489.786 L769.0488 493.6407 Z" clip-path="url(#clipPath2)" stroke="none"/>
      <text x="679.0615" y="501.0292" clip-path="url(#clipPath2)" font-family="sans-serif" stroke="none" font-weight="bold" xml:space="preserve">gRPC</text>
      <path fill="none" d="M889 508.2695 L1008 508.2695" clip-path="url(#clipPath2)"/>
      <path d="M881 508.2695 L893 513.2695 L890 508.2695 L893 503.2695 Z" clip-path="url(#clipPath2)" stroke="none"/>
      <path d="M1016 508.2695 L1004 503.2695 L1007 508.2695 L1004 513.2695 Z" clip-path="url(#clipPath2)" stroke="none"/>
      <text x="931.8242" y="535.4395" clip-path="url(#clipPath2)" font-family="sans-serif" stroke="none" font-weight="bold" xml:space="preserve">JSON</text>
      <text x="901.7656" y="549.4082" clip-path="url(#clipPath2)" font-family="sans-serif" stroke="none" font-weight="bold" xml:space="preserve">(stdin/stdout)</text>
    </g>
  </g>
</svg>
